<mxfile host="app.diagrams.net" modified="2023-12-29T09:49:10.772Z" agent="Mozilla/5.0 (Windows NT 10.0; Win64; x64) AppleWebKit/537.36 (KHTML, like Gecko) Chrome/120.0.0.0 Safari/537.36 Edg/120.0.0.0" etag="wnMEiBGVijPydKsQ8lnF" version="22.1.15" type="github">
  <diagram id="prtHgNgQTEPvFCAcTncT" name="Page-1">
    <mxGraphModel dx="863" dy="469" grid="1" gridSize="10" guides="1" tooltips="1" connect="1" arrows="1" fold="1" page="1" pageScale="1" pageWidth="827" pageHeight="1169" math="0" shadow="0">
      <root>
        <mxCell id="0" />
        <mxCell id="1" parent="0" />
        <mxCell id="tH5zLTrochxv-4fRvgVj-13" value="" style="rounded=0;whiteSpace=wrap;html=1;" vertex="1" parent="1">
          <mxGeometry x="50" y="290" width="230" height="110" as="geometry" />
        </mxCell>
        <mxCell id="tH5zLTrochxv-4fRvgVj-3" style="edgeStyle=orthogonalEdgeStyle;rounded=0;orthogonalLoop=1;jettySize=auto;html=1;entryX=0.5;entryY=0;entryDx=0;entryDy=0;" edge="1" parent="1" source="tH5zLTrochxv-4fRvgVj-1" target="tH5zLTrochxv-4fRvgVj-2">
          <mxGeometry relative="1" as="geometry" />
        </mxCell>
        <mxCell id="tH5zLTrochxv-4fRvgVj-7" style="edgeStyle=orthogonalEdgeStyle;rounded=0;orthogonalLoop=1;jettySize=auto;html=1;exitX=0.5;exitY=1;exitDx=0;exitDy=0;entryX=0.5;entryY=0;entryDx=0;entryDy=0;" edge="1" parent="1" source="tH5zLTrochxv-4fRvgVj-1" target="tH5zLTrochxv-4fRvgVj-4">
          <mxGeometry relative="1" as="geometry" />
        </mxCell>
        <mxCell id="tH5zLTrochxv-4fRvgVj-8" style="edgeStyle=orthogonalEdgeStyle;rounded=0;orthogonalLoop=1;jettySize=auto;html=1;entryX=0.5;entryY=0;entryDx=0;entryDy=0;" edge="1" parent="1" source="tH5zLTrochxv-4fRvgVj-1" target="tH5zLTrochxv-4fRvgVj-5">
          <mxGeometry relative="1" as="geometry" />
        </mxCell>
        <mxCell id="tH5zLTrochxv-4fRvgVj-1" value="业务功能" style="rounded=0;whiteSpace=wrap;html=1;" vertex="1" parent="1">
          <mxGeometry x="340" y="130" width="120" height="50" as="geometry" />
        </mxCell>
        <mxCell id="tH5zLTrochxv-4fRvgVj-26" style="edgeStyle=orthogonalEdgeStyle;rounded=0;orthogonalLoop=1;jettySize=auto;html=1;" edge="1" parent="1" source="tH5zLTrochxv-4fRvgVj-2" target="tH5zLTrochxv-4fRvgVj-13">
          <mxGeometry relative="1" as="geometry" />
        </mxCell>
        <mxCell id="tH5zLTrochxv-4fRvgVj-2" value="用户" style="rounded=1;whiteSpace=wrap;html=1;" vertex="1" parent="1">
          <mxGeometry x="105" y="210" width="120" height="60" as="geometry" />
        </mxCell>
        <mxCell id="tH5zLTrochxv-4fRvgVj-27" style="edgeStyle=orthogonalEdgeStyle;rounded=0;orthogonalLoop=1;jettySize=auto;html=1;entryX=0.5;entryY=0;entryDx=0;entryDy=0;" edge="1" parent="1" source="tH5zLTrochxv-4fRvgVj-4" target="tH5zLTrochxv-4fRvgVj-16">
          <mxGeometry relative="1" as="geometry" />
        </mxCell>
        <mxCell id="tH5zLTrochxv-4fRvgVj-4" value="物品" style="rounded=1;whiteSpace=wrap;html=1;" vertex="1" parent="1">
          <mxGeometry x="340" y="210" width="120" height="60" as="geometry" />
        </mxCell>
        <mxCell id="tH5zLTrochxv-4fRvgVj-28" style="edgeStyle=orthogonalEdgeStyle;rounded=0;orthogonalLoop=1;jettySize=auto;html=1;exitX=0.5;exitY=1;exitDx=0;exitDy=0;entryX=0.5;entryY=0;entryDx=0;entryDy=0;" edge="1" parent="1" source="tH5zLTrochxv-4fRvgVj-5" target="tH5zLTrochxv-4fRvgVj-21">
          <mxGeometry relative="1" as="geometry" />
        </mxCell>
        <mxCell id="tH5zLTrochxv-4fRvgVj-5" value="私聊" style="rounded=1;whiteSpace=wrap;html=1;" vertex="1" parent="1">
          <mxGeometry x="575" y="210" width="120" height="60" as="geometry" />
        </mxCell>
        <mxCell id="tH5zLTrochxv-4fRvgVj-9" value="用户登录" style="rounded=0;whiteSpace=wrap;html=1;" vertex="1" parent="1">
          <mxGeometry x="70" y="310" width="90" height="30" as="geometry" />
        </mxCell>
        <mxCell id="tH5zLTrochxv-4fRvgVj-10" value="用户注册" style="rounded=0;whiteSpace=wrap;html=1;" vertex="1" parent="1">
          <mxGeometry x="170" y="310" width="90" height="30" as="geometry" />
        </mxCell>
        <mxCell id="tH5zLTrochxv-4fRvgVj-11" value="用户信息修改" style="rounded=0;whiteSpace=wrap;html=1;" vertex="1" parent="1">
          <mxGeometry x="70" y="350" width="90" height="30" as="geometry" />
        </mxCell>
        <mxCell id="tH5zLTrochxv-4fRvgVj-12" value="查询用户" style="rounded=0;whiteSpace=wrap;html=1;" vertex="1" parent="1">
          <mxGeometry x="170" y="350" width="90" height="30" as="geometry" />
        </mxCell>
        <mxCell id="tH5zLTrochxv-4fRvgVj-16" value="" style="rounded=0;whiteSpace=wrap;html=1;" vertex="1" parent="1">
          <mxGeometry x="285" y="290" width="230" height="110" as="geometry" />
        </mxCell>
        <mxCell id="tH5zLTrochxv-4fRvgVj-17" value="物品上传" style="rounded=0;whiteSpace=wrap;html=1;" vertex="1" parent="1">
          <mxGeometry x="305" y="310" width="90" height="30" as="geometry" />
        </mxCell>
        <mxCell id="tH5zLTrochxv-4fRvgVj-18" value="物品浏览" style="rounded=0;whiteSpace=wrap;html=1;" vertex="1" parent="1">
          <mxGeometry x="405" y="310" width="90" height="30" as="geometry" />
        </mxCell>
        <mxCell id="tH5zLTrochxv-4fRvgVj-19" value="物品搜索" style="rounded=0;whiteSpace=wrap;html=1;" vertex="1" parent="1">
          <mxGeometry x="305" y="350" width="90" height="30" as="geometry" />
        </mxCell>
        <mxCell id="tH5zLTrochxv-4fRvgVj-20" value="物品信息修改" style="rounded=0;whiteSpace=wrap;html=1;" vertex="1" parent="1">
          <mxGeometry x="405" y="350" width="90" height="30" as="geometry" />
        </mxCell>
        <mxCell id="tH5zLTrochxv-4fRvgVj-21" value="" style="rounded=0;whiteSpace=wrap;html=1;" vertex="1" parent="1">
          <mxGeometry x="520" y="290" width="230" height="110" as="geometry" />
        </mxCell>
        <mxCell id="tH5zLTrochxv-4fRvgVj-22" value="发送消息" style="rounded=0;whiteSpace=wrap;html=1;" vertex="1" parent="1">
          <mxGeometry x="540" y="310" width="90" height="30" as="geometry" />
        </mxCell>
        <mxCell id="tH5zLTrochxv-4fRvgVj-23" value="查询消息记录" style="rounded=0;whiteSpace=wrap;html=1;" vertex="1" parent="1">
          <mxGeometry x="640" y="350" width="90" height="30" as="geometry" />
        </mxCell>
        <mxCell id="tH5zLTrochxv-4fRvgVj-24" value="创建聊天室" style="rounded=0;whiteSpace=wrap;html=1;" vertex="1" parent="1">
          <mxGeometry x="540" y="350" width="90" height="30" as="geometry" />
        </mxCell>
        <mxCell id="tH5zLTrochxv-4fRvgVj-29" value="接收消息" style="rounded=0;whiteSpace=wrap;html=1;" vertex="1" parent="1">
          <mxGeometry x="640" y="310" width="90" height="30" as="geometry" />
        </mxCell>
      </root>
    </mxGraphModel>
  </diagram>
</mxfile>
